<svg width="24" height="30" viewBox="0 0 24 30" fill="none" xmlns="http://www.w3.org/2000/svg">
	<path fill-rule="evenodd" clip-rule="evenodd" d="M24 9.10714V30H0V0H14.7273L24 9.10714ZM14.7273 1.51523V9.10714H22.4572L14.7273 1.51523ZM13.6364 1.07143H1.09091V28.9286H22.9091V10.1786H13.6364V1.07143Z" fill="#222222"/>
	<path d="M6.583 17.697L4.459 21H5.242L6.961 18.291L8.68 21H9.562L7.465 17.697L9.463 14.565H8.662L7.069 17.094L5.467 14.565H4.603L6.583 17.697ZM10.8845 14.565V21H14.6105V20.361H11.6675V14.565H10.8845ZM17.7975 21.081C19.0755 21.081 20.0205 20.262 20.0205 19.182C20.0205 17.976 19.2645 17.526 17.8335 17.31C16.5195 17.121 16.2855 16.779 16.2855 16.158C16.2855 15.546 16.7355 15.114 17.6265 15.114C18.5265 15.114 18.9855 15.438 19.1385 16.257H19.8405C19.7055 15.105 18.9225 14.484 17.6265 14.484C16.4115 14.484 15.5565 15.249 15.5565 16.23C15.5565 17.382 16.3575 17.787 17.7075 18.003C18.9315 18.192 19.2645 18.507 19.2645 19.236C19.2645 19.965 18.6255 20.451 17.7975 20.451C16.5105 20.451 16.1955 19.803 16.0965 19.038H15.3405C15.4575 20.136 16.0785 21.081 17.7975 21.081Z" fill="#222222"/>
</svg>