<svg viewBox="0 0 40 40" fill="none" xmlns="http://www.w3.org/2000/svg">
	<path d="M24.6639 2.01358C27.2548 0.687539 30.0826 0 32.9457 0H40V9.94924H37.1535C32.9933 9.94924 28.8812 10.917 25.0928 12.7876L20.5607 15.0254L30.8411 20.1015H40V30.0508H30.8411L16.1347 38.2049C14.0066 39.3849 11.6521 40 9.26369 40H0V30.0508H4.14237C7.32647 30.0508 10.475 29.3219 13.3834 27.9114L19.4393 24.9746L9.15888 19.8985H0V9.94924H9.15888L24.6639 2.01358Z" fill="#70CE98"/>
	<path d="M24.6639 2.01358C27.2548 0.687539 30.0826 0 32.9457 0H40V9.94924H37.1535C32.9933 9.94924 28.8812 10.917 25.0928 12.7876L20.5607 15.0254L30.8411 20.1015H40V30.0508H30.8411L16.1347 38.2049C14.0066 39.3849 11.6521 40 9.26369 40H0V30.0508H4.14237C7.32647 30.0508 10.475 29.3219 13.3834 27.9114L19.4393 24.9746L9.15888 19.8985H0V9.94924H9.15888L24.6639 2.01358Z" fill="#C4C4C4"/>
</svg>
